<?xml version="1.0" standalone="no"?><!DOCTYPE svg PUBLIC "-//W3C//DTD SVG 1.1//EN" "http://www.w3.org/Graphics/SVG/1.1/DTD/svg11.dtd"><svg t="1564459783259" class="icon" viewBox="0 0 1184 1024" version="1.1" xmlns="http://www.w3.org/2000/svg" p-id="1103" xmlns:xlink="http://www.w3.org/1999/xlink" width="231.25" height="200"><defs><style type="text/css"></style></defs><path d="M331.424 263.424q0-23.424-14.272-37.728t-37.728-14.272q-24.576 0-43.424 14.56t-18.848 37.44q0 22.272 18.848 36.864t43.424 14.56q23.424 0 37.728-14.016t14.272-37.44zM756 553.152q0-16-14.56-28.576t-37.44-12.576q-15.424 0-28.288 12.864t-12.864 28.288q0 16 12.864 28.864t28.288 12.864q22.848 0 37.44-12.576t14.56-29.152zM621.152 263.424q0-23.424-14.016-37.728t-37.44-14.272q-24.576 0-43.424 14.56t-18.848 37.44q0 22.272 18.848 36.864t43.424 14.56q23.424 0 37.44-14.016t14.016-37.44zM984 553.152q0-16-14.848-28.576t-37.152-12.576q-15.424 0-28.288 12.864t-12.864 28.288q0 16 12.864 28.864t28.288 12.864q22.272 0 37.152-12.576t14.848-29.152zM832 326.272q-17.728-2.272-40-2.272-96.576 0-177.728 44t-127.712 119.136-46.56 164.288q0 44.576 13.152 86.848-20 1.728-38.848 1.728-14.848 0-28.576-0.864t-31.424-3.712-25.44-4-31.136-6.016-28.576-6.016l-144.576 72.576 41.152-124.576q-165.728-116-165.728-280 0-96.576 55.712-177.728t150.848-127.712 207.712-46.56q100.576 0 190.016 37.728t149.728 104.288 78.016 148.864zM1170.272 646.848q0 66.848-39.136 127.712t-106.016 110.56l31.424 103.424-113.728-62.272q-85.728 21.152-124.576 21.152-96.576 0-177.728-40.288t-127.712-109.44-46.56-150.848 46.56-150.848 127.712-109.44 177.728-40.288q92 0 173.152 40.288t130.016 109.728 48.864 150.56z" p-id="1104"></path></svg>